<?xml version="1.0" standalone="no"?>
<!DOCTYPE svg PUBLIC "-//W3C//DTD SVG 20010904//EN"
 "http://www.w3.org/TR/2001/REC-SVG-20010904/DTD/svg10.dtd">
<svg version="1.0" xmlns="http://www.w3.org/2000/svg"
 width="50pt" height="50pt" viewBox="0 0 494.000000 505.000000"
 preserveAspectRatio="xMidYMid meet">

<g transform="translate(0.000000,505.000000) scale(0.100000,-0.100000)"
fill="#E4CC7C" stroke="none">
<path d="M614 5009 c-42 -12 -130 -107 -154 -166 -11 -26 -25 -56 -30 -65 -6
-10 -15 -61 -20 -113 -8 -73 -17 -109 -40 -155 -16 -33 -30 -68 -30 -79 0 -11
-4 -23 -10 -26 -13 -8 -13 -50 -1 -73 6 -9 12 -29 16 -45 12 -59 141 -152 240
-173 58 -13 84 -65 105 -214 6 -41 15 -79 21 -87 6 -7 9 -13 5 -13 -3 0 6 -18
21 -41 38 -58 87 -78 198 -81 50 -2 93 -7 97 -13 5 -6 8 -5 8 3 0 6 9 12 20
12 11 0 20 -4 20 -10 0 -5 6 -10 13 -10 6 0 21 -14 32 -30 11 -16 26 -30 33
-30 6 0 12 -5 12 -10 0 -6 12 -15 28 -21 15 -5 45 -18 67 -28 52 -23 107 -41
127 -41 8 0 27 -9 41 -20 14 -11 34 -20 44 -20 11 0 34 -11 53 -25 19 -14 38
-25 44 -25 9 0 33 -19 64 -54 9 -10 25 -26 35 -35 9 -8 17 -19 17 -24 0 -4 36
-50 80 -102 44 -52 80 -97 80 -100 0 -3 12 -22 28 -44 15 -21 36 -57 46 -79
11 -23 25 -42 32 -42 12 0 47 -64 41 -73 -1 -2 6 -11 16 -21 9 -10 17 -24 17
-33 0 -8 6 -27 14 -41 8 -15 19 -45 26 -67 11 -39 14 -41 105 -74 52 -19 96
-40 99 -48 3 -7 13 -13 23 -13 10 0 36 -14 57 -30 22 -17 43 -30 48 -30 16 0
78 -45 78 -57 0 -18 -7 -16 -44 12 -18 14 -39 25 -46 25 -8 0 -30 10 -49 23
-60 38 -74 46 -121 67 -25 11 -53 25 -63 31 -36 20 -184 30 -280 18 -51 -6
-100 -15 -109 -20 -10 -6 -18 -7 -18 -3 0 3 -6 2 -12 -3 -13 -10 -83 -30 -123
-36 -11 -2 -34 -11 -52 -20 -18 -9 -37 -17 -42 -17 -9 0 -99 -56 -111 -69 -3
-4 -17 -13 -32 -21 -31 -18 -122 -94 -156 -132 -14 -16 -31 -28 -38 -28 -7 0
-14 -6 -16 -14 -4 -19 -231 -256 -245 -256 -7 0 -17 8 -22 18 -5 9 -28 28 -50
42 -57 34 -55 60 4 60 36 0 47 -4 61 -25 22 -33 61 -34 74 -1 5 13 52 69 104
124 53 55 96 105 96 111 0 6 -9 11 -20 11 -25 0 -165 -64 -175 -79 -3 -6 -13
-11 -20 -11 -16 0 -118 -60 -123 -72 -2 -4 -8 -8 -13 -8 -5 0 -46 -29 -91 -65
-46 -35 -108 -84 -138 -107 -90 -71 -197 -177 -208 -206 -29 -80 -35 -113 -24
-124 7 -7 12 -21 12 -31 0 -18 28 -76 41 -87 7 -5 38 -74 46 -100 3 -8 8 -42
12 -75 4 -33 12 -69 16 -80 10 -22 67 -79 110 -110 16 -11 40 -30 54 -41 15
-12 42 -28 61 -36 19 -8 57 -35 83 -59 48 -43 49 -46 63 -134 8 -50 18 -99 23
-110 26 -60 31 -80 31 -126 0 -55 -18 -141 -32 -150 -14 -9 -21 -104 -9 -126
13 -25 65 -35 89 -17 9 8 25 14 34 14 10 0 42 23 73 52 86 80 95 85 111 62 41
-58 59 -58 85 1 11 25 24 45 29 45 6 0 10 -22 10 -50 0 -27 4 -50 8 -50 5 0
15 -11 22 -25 14 -25 44 -33 55 -15 12 19 26 10 41 -27 9 -21 22 -51 29 -68 8
-17 15 -78 17 -144 3 -109 4 -114 31 -137 38 -33 77 -23 154 38 91 71 123 117
140 196 37 178 1 381 -76 430 -14 9 -29 21 -32 25 -9 12 -75 53 -119 73 -137
62 -151 75 -207 184 -10 19 -22 38 -26 41 -5 3 -9 10 -9 15 -1 18 -33 79 -45
87 -7 4 -13 15 -13 23 0 19 -60 109 -81 120 -39 21 -149 117 -149 130 0 18 87
104 106 104 7 0 18 9 24 20 6 11 15 20 21 20 6 0 25 6 42 14 39 17 90 32 139
41 20 3 50 12 65 20 15 8 34 15 42 15 22 0 140 58 164 80 11 11 25 20 29 20
13 0 78 53 78 63 0 5 13 22 29 38 25 25 37 29 84 29 31 0 68 -7 84 -15 111
-57 207 -87 276 -85 22 0 46 -5 54 -11 8 -7 52 -15 99 -17 46 -3 87 -8 90 -13
3 -5 23 -9 44 -9 21 0 42 -5 45 -10 4 -6 14 -10 23 -9 10 1 36 -6 59 -15 50
-21 73 -59 73 -120 0 -89 53 -189 116 -220 16 -8 38 -24 49 -36 10 -11 24 -20
31 -20 7 0 14 -5 16 -11 3 -8 34 -13 83 -13 65 -2 95 3 159 26 92 34 118 53
186 142 40 53 50 73 50 104 0 24 -6 45 -16 53 -14 12 -16 28 -11 104 6 105 3
115 -29 115 -25 0 -74 40 -74 59 0 6 -11 27 -25 47 -23 33 -33 74 -20 74 4 0
20 -8 38 -17 18 -9 36 -16 41 -15 9 3 58 -17 109 -43 16 -8 33 -13 38 -9 5 3
9 1 9 -3 0 -14 143 -34 193 -28 38 5 47 3 55 -12 5 -10 15 -105 22 -210 10
-151 11 -236 2 -395 -12 -213 -11 -234 31 -403 9 -33 23 -91 32 -130 10 -38
23 -133 30 -210 7 -77 13 -141 14 -142 5 -12 86 -52 124 -63 26 -7 53 -20 60
-29 22 -29 78 -62 130 -77 122 -35 126 -35 153 -17 21 14 25 22 20 47 -4 18
-21 44 -42 61 -19 17 -48 44 -64 60 -134 136 -165 179 -148 209 6 10 8 183 6
420 -2 319 -6 406 -16 419 -17 20 -20 150 -5 169 15 18 50 148 77 283 11 61
25 116 30 124 13 20 11 270 -3 284 -6 6 -11 26 -11 44 0 38 19 49 99 60 25 3
55 12 66 19 11 7 38 16 60 19 45 8 81 27 110 60 11 12 33 28 50 36 16 8 31 23
33 34 2 11 11 36 19 55 8 19 19 44 23 55 4 11 13 33 19 48 14 35 14 94 1 102
-5 3 -10 18 -10 33 0 56 -49 162 -74 162 -3 0 -25 13 -48 30 -22 16 -47 30
-54 30 -7 0 -19 9 -26 19 -20 29 -62 36 -99 17 -18 -9 -41 -14 -50 -11 -21 7
-67 -15 -105 -50 -15 -14 -34 -25 -43 -25 -18 -1 -67 -29 -132 -75 -30 -21
-44 -26 -47 -17 -2 7 -21 29 -42 48 -27 26 -39 46 -44 76 -4 23 -24 78 -46
122 -21 45 -48 101 -59 126 -12 25 -34 65 -50 90 -16 25 -37 68 -47 95 -9 28
-20 55 -24 60 -15 19 -30 204 -30 368 0 163 13 314 30 352 5 11 16 61 25 110
9 50 22 97 29 105 8 8 17 32 20 53 7 37 49 152 83 227 9 19 18 58 21 85 2 28
8 55 13 61 12 15 -9 84 -26 84 -8 0 -25 -21 -37 -47 -32 -62 -44 -64 -53 -6
-4 26 -14 56 -23 66 -14 16 -16 16 -34 1 -13 -13 -18 -31 -18 -70 0 -55 -16
-79 -32 -49 -6 9 -23 31 -38 48 -24 27 -30 29 -44 18 -17 -15 -22 -56 -7 -65
11 -7 26 -85 18 -93 -3 -3 -19 4 -35 16 -34 24 -58 27 -65 8 -3 -9 25 -143 34
-154 1 -2 2 -7 3 -12 0 -5 4 -13 9 -17 9 -9 9 -58 0 -68 -10 -10 -31 -74 -38
-118 -4 -21 -11 -38 -15 -38 -5 0 -11 -15 -15 -32 -11 -58 -28 -123 -35 -133
-4 -5 -13 -35 -19 -65 -7 -30 -15 -62 -18 -70 -4 -8 -5 -21 -4 -28 1 -8 -2
-19 -7 -25 -15 -20 -60 -169 -66 -222 -3 -27 -1 -81 5 -120 6 -38 10 -81 9
-95 0 -14 4 -34 9 -45 6 -11 14 -56 20 -100 6 -46 21 -104 35 -135 l26 -55 -6
60 c-3 33 -9 69 -13 80 -16 37 -34 189 -38 317 -5 128 7 216 41 293 8 17 19
60 26 98 7 37 16 67 20 67 4 0 15 39 24 87 10 47 24 96 31 107 7 12 17 39 21
61 4 22 16 57 27 78 23 44 20 125 -7 179 -21 40 -15 45 22 18 49 -37 66 -22
59 50 -7 67 5 80 23 25 9 -27 17 -35 35 -35 22 0 25 5 31 60 4 33 10 60 14 60
4 0 11 -20 14 -44 4 -24 13 -50 21 -56 12 -10 18 -6 32 19 26 44 47 38 24 -7
-12 -24 -41 -125 -41 -145 0 -10 -4 -17 -9 -17 -5 0 -17 -31 -27 -70 -10 -38
-21 -70 -24 -70 -9 0 -27 -64 -36 -125 -3 -27 -10 -54 -14 -60 -5 -5 -14 -48
-20 -95 -6 -47 -16 -92 -20 -101 -11 -22 -13 -388 -2 -403 5 -6 12 -48 15 -94
4 -45 12 -92 19 -105 7 -12 13 -24 13 -27 2 -15 41 -100 46 -100 10 0 123
-237 141 -295 5 -16 16 -57 23 -90 13 -55 12 -63 -6 -93 -10 -18 -19 -38 -19
-43 0 -5 -18 -38 -40 -72 -55 -85 -61 -94 -93 -136 -15 -20 -42 -55 -59 -78
-18 -24 -35 -43 -39 -43 -4 0 -30 -22 -59 -50 -29 -27 -59 -50 -67 -50 -9 0
-21 -7 -27 -15 -15 -20 -120 -23 -144 -3 -9 7 -30 20 -45 28 -16 8 -40 34 -54
57 -14 24 -28 43 -32 43 -4 0 -14 19 -21 43 -8 23 -18 48 -23 55 -5 7 -12 43
-15 81 -6 92 15 141 62 141 18 0 41 7 52 15 10 8 27 15 37 15 10 0 39 21 65
48 47 46 48 49 60 138 20 149 14 187 -24 160 -15 -12 -17 -17 -6 -27 15 -16
16 -55 2 -64 -6 -4 -7 -11 -4 -17 4 -5 1 -29 -6 -52 -6 -22 -16 -58 -22 -78
-7 -24 -19 -40 -32 -44 -12 -3 -28 -12 -36 -19 -18 -15 -83 -37 -124 -42 -25
-3 -28 -1 -22 21 3 14 1 30 -7 38 -6 7 -31 36 -55 65 -56 68 -116 97 -184 91
-27 -3 -53 -9 -57 -14 -3 -5 -15 -14 -25 -20 -11 -6 -24 -19 -30 -29 -6 -11
-17 -25 -23 -33 -7 -7 -13 -22 -13 -33 0 -25 -26 -24 -42 1 -7 11 -18 20 -23
20 -15 0 -107 98 -124 133 -8 15 -18 27 -22 27 -4 0 -11 15 -14 33 -4 17 -18
52 -30 77 -13 25 -28 56 -35 70 -27 60 -51 100 -59 100 -5 0 -12 11 -15 24 -7
27 -106 178 -144 219 -16 16 -53 36 -94 49 -37 12 -68 26 -68 30 0 4 -16 8
-35 8 -35 0 -128 16 -155 27 -8 4 -26 8 -40 9 -45 4 -98 21 -132 41 -18 11
-52 26 -75 33 -24 7 -43 16 -43 20 0 4 -19 12 -42 19 -24 7 -50 19 -58 26 -14
12 -84 52 -141 82 -15 7 -32 20 -39 28 -7 8 -19 15 -27 15 -7 0 -16 7 -19 15
-4 8 -11 15 -18 15 -6 0 -41 25 -79 55 -37 30 -70 55 -73 55 -8 0 -74 50 -121
92 -24 21 -49 38 -58 38 -8 0 -15 7 -15 15 0 17 16 20 25 5 4 -6 11 -7 17 -4
7 5 6 11 -5 19 -8 6 -17 26 -19 45 -2 18 -9 35 -16 38 -11 3 -12 0 -3 -16 6
-11 11 -25 11 -30 0 -19 -33 -22 -52 -6 -17 16 -17 18 -1 37 18 20 18 20 -14
2 -26 -15 -34 -16 -47 -6 -9 8 -16 22 -16 32 0 10 -4 20 -9 23 -5 4 -7 55 -4
121 4 84 3 115 -6 115 -8 0 -10 15 -6 48 16 142 -2 233 -47 246 -27 7 -24 7
-64 -5z m72 -184 c-3 -66 -6 -139 -6 -162 1 -31 -3 -43 -13 -43 -8 0 -21 -7
-28 -16 -10 -12 -103 -64 -115 -64 -1 0 -7 12 -13 28 -6 15 -16 35 -23 44 -10
14 -9 21 10 41 12 13 22 28 22 34 0 7 6 18 13 25 6 7 21 40 32 73 10 33 22 62
25 65 3 3 12 25 20 50 7 25 20 53 28 63 15 16 16 16 35 0 17 -16 18 -28 13
-138z m-132 26 c-9 -31 -23 -65 -30 -76 -8 -11 -14 -27 -14 -35 0 -21 -46 -84
-53 -73 -9 15 19 136 43 183 12 25 32 56 44 68 18 21 21 22 24 7 2 -10 -4 -43
-14 -74z m126 -301 c0 -29 0 -30 -88 -76 -31 -17 -33 -17 -47 2 -21 28 -18 38
13 51 15 7 45 23 67 36 47 28 55 26 55 -13z m-220 5 c16 -20 5 -45 -20 -45
-20 0 -25 15 -14 44 8 20 18 20 34 1z m38 -99 c-2 -16 -15 -23 -57 -33 -63
-13 -71 -11 -64 17 4 14 20 24 49 32 24 7 44 16 44 21 0 5 7 4 15 -3 9 -7 15
-23 13 -34z m200 -19 c16 -45 16 -47 -17 -58 -27 -9 -29 -14 -35 -81 -4 -39
-13 -79 -19 -89 -6 -10 -8 -22 -4 -26 11 -11 27 17 27 49 0 52 6 56 70 51 37
-4 71 -1 90 7 47 19 49 3 4 -38 -50 -47 -114 -125 -114 -141 0 -15 -11 -14
-35 3 -11 7 -37 16 -57 20 l-38 7 -2 114 c-1 63 -2 130 -2 148 -1 26 3 33 22
35 12 2 22 7 22 12 0 9 23 17 55 19 15 1 24 -9 33 -32z m-178 -57 c0 -10 5
-22 10 -25 14 -8 13 -132 -1 -141 -6 -3 -8 -15 -6 -26 8 -28 -20 -34 -47 -9
-12 11 -28 21 -34 21 -7 0 -12 5 -12 11 0 6 -16 29 -36 51 -29 32 -35 46 -32
75 3 36 4 37 61 48 31 6 57 9 57 6 0 -3 5 0 12 7 14 14 28 6 28 -18z m263 -57
c15 -9 -23 -33 -51 -33 -32 0 -62 17 -62 37 0 13 8 14 52 9 28 -4 56 -10 61
-13z m163 -68 c4 -8 10 -15 16 -15 12 0 88 -61 88 -72 0 -12 -73 -77 -87 -78
-7 0 -13 -6 -13 -12 0 -7 -14 -31 -30 -52 -17 -22 -30 -46 -30 -54 0 -13 -3
-13 -18 1 -29 26 -86 66 -109 76 -45 20 -19 85 66 164 63 58 105 73 117 42z
m272 -200 c12 -14 28 -25 36 -25 45 0 7 -50 -76 -103 -16 -9 -32 -25 -35 -35
-4 -9 -17 -29 -29 -44 -12 -15 -25 -41 -29 -58 -6 -28 -35 -44 -35 -19 0 6
-13 28 -30 49 -37 46 -38 71 -5 114 14 18 25 37 25 43 0 15 45 53 92 78 56 30
60 30 86 0z m-480 -47 c20 -20 14 -38 -13 -38 -20 0 -25 5 -25 25 0 27 18 33
38 13z m86 -87 c17 -18 16 -19 -16 -26 -18 -4 -39 -12 -45 -17 -21 -17 -43 -1
-43 32 0 29 2 30 43 30 30 0 49 -6 61 -19z m641 -21 c3 -5 14 -10 25 -10 10 0
20 -6 23 -14 3 -7 21 -16 41 -20 20 -4 59 -19 88 -35 29 -15 62 -30 73 -34 11
-3 27 -11 35 -16 8 -5 26 -14 40 -20 66 -31 101 -53 106 -66 4 -8 13 -15 21
-15 18 0 373 -359 373 -377 0 -7 7 -13 15 -13 9 0 20 -11 25 -25 5 -14 14 -25
20 -25 23 0 6 -29 -55 -92 -81 -83 -142 -133 -175 -143 -14 -4 -39 -16 -56
-26 -41 -25 -74 -25 -81 1 -3 11 -12 20 -19 20 -8 0 -14 5 -14 11 0 14 -73
120 -99 143 -11 11 -21 23 -21 28 0 5 -16 24 -35 44 -19 19 -35 38 -35 42 -1
4 -27 37 -59 74 -56 66 -130 128 -152 128 -6 0 -23 8 -37 19 -15 10 -54 26
-87 36 -33 9 -69 21 -80 25 -11 5 -38 15 -60 22 -22 7 -44 19 -48 25 -4 7 -15
13 -23 13 -8 0 -19 11 -24 26 -21 54 91 220 182 271 28 15 84 17 93 3z m-451
-124 c43 -51 42 -76 -1 -76 -42 0 -49 9 -67 79 -9 36 -21 70 -27 77 -6 7 -8
18 -4 24 4 6 17 -3 33 -24 15 -19 44 -55 66 -80z m-142 72 c34 -27 51 -134 23
-144 -38 -15 -114 30 -142 84 -26 50 -18 56 93 71 5 0 17 -5 26 -11z m1086
-117 c9 -5 44 -14 76 -20 32 -6 67 -17 76 -26 9 -8 24 -15 33 -15 19 0 74 -57
83 -85 4 -11 17 -31 29 -45 40 -43 173 -295 162 -306 -4 -4 -64 53 -134 127
-70 74 -179 186 -240 250 -121 123 -138 147 -85 120z m502 -623 c0 -7 -22 -35
-49 -63 -83 -84 -103 -99 -201 -145 -25 -12 -52 -28 -60 -35 -20 -18 -106 -33
-96 -17 4 7 13 12 21 12 7 0 26 6 42 14 15 8 44 22 63 31 90 43 200 123 200
147 0 14 52 65 68 67 6 0 12 -5 12 -11z m415 -48 c3 -5 17 -10 30 -10 13 0 27
-4 30 -10 3 -5 13 -10 22 -10 15 0 73 -55 73 -71 0 -4 9 -13 21 -20 15 -8 18
-14 10 -22 -7 -7 -16 -6 -29 6 -26 24 -28 22 -43 -28 -7 -25 -16 -45 -20 -45
-3 0 -14 -37 -24 -82 -9 -46 -21 -87 -25 -93 -10 -14 -40 -136 -50 -210 -10
-66 -2 -223 12 -231 18 -11 8 -93 -19 -146 -15 -29 -31 -54 -35 -56 -5 -2 -8
-8 -8 -14 0 -13 -72 -76 -109 -97 -30 -17 -240 -19 -275 -3 -11 5 -41 16 -66
23 -25 7 -54 18 -65 25 -11 6 -33 15 -48 18 -44 10 -115 82 -129 130 -6 22
-16 47 -21 54 -6 8 -6 12 2 12 6 0 11 11 11 24 0 14 5 28 10 31 6 3 10 14 10
24 0 23 78 106 110 116 14 4 27 11 30 15 3 4 38 10 79 14 l74 7 -7 -27 c-5
-17 -3 -30 5 -35 24 -14 69 31 103 104 67 142 84 183 91 215 3 17 11 32 16 32
5 0 9 7 9 15 0 9 13 44 29 78 15 34 34 83 42 110 7 26 17 47 21 47 4 0 8 8 8
18 0 18 34 55 80 85 30 19 37 20 45 7z m1494 -120 c36 -7 74 -18 85 -26 11 -8
27 -14 34 -14 21 0 101 -53 102 -67 0 -8 -16 -3 -42 12 -24 14 -59 33 -78 41
-19 9 -50 23 -68 32 -18 9 -59 17 -90 17 -72 2 -75 3 -67 16 4 5 19 8 33 5 15
-3 56 -10 91 -16z m-175 -53 c-2 -70 -22 -103 -80 -131 -21 -10 -47 -22 -56
-27 -51 -26 -88 2 -88 65 0 25 3 46 8 46 4 0 12 10 17 22 6 12 19 26 30 32 11
6 35 21 55 34 25 16 47 22 75 20 l40 -3 -1 -58z m-304 -18 c0 -6 -6 -23 -14
-37 -8 -15 -31 -63 -52 -107 -21 -44 -48 -94 -61 -111 -13 -17 -23 -34 -23
-38 0 -12 -143 -166 -155 -166 -5 0 -16 -9 -23 -20 -7 -11 -17 -20 -22 -20 -6
0 -23 -9 -38 -20 -15 -10 -47 -24 -72 -30 -25 -6 -54 -13 -64 -15 -11 -3 -24
-1 -30 4 -6 5 -33 12 -61 17 -43 6 -59 15 -110 65 -34 32 -67 74 -75 94 -7 19
-17 35 -22 35 -4 0 -8 11 -8 25 0 36 17 31 30 -11 17 -50 114 -146 181 -178
55 -26 123 -34 133 -17 3 5 29 14 57 21 28 7 53 19 56 26 3 8 11 14 17 14 7 0
24 12 38 28 14 15 40 41 59 58 48 44 79 80 79 92 0 6 8 17 18 24 10 7 24 29
32 48 8 19 20 39 27 43 7 4 13 12 13 18 0 5 10 26 23 47 13 20 29 56 37 80 12
39 30 57 30 31z m298 -174 c7 -37 69 -160 91 -179 11 -11 21 -23 21 -28 0 -6
10 -18 22 -27 11 -10 18 -23 14 -29 -13 -21 -89 43 -117 100 -74 149 -86 193
-52 186 10 -2 19 -12 21 -23z m-134 -41 c3 -9 6 -33 6 -55 0 -21 4 -39 8 -39
5 0 15 -25 22 -55 7 -31 23 -64 37 -76 12 -13 23 -26 23 -31 0 -17 -46 -6 -61
15 -20 27 -49 109 -49 137 0 10 -3 21 -8 24 -10 6 -2 96 8 96 4 0 11 -7 14
-16z m-184 -113 c0 -11 -175 -174 -193 -180 -6 -2 -28 -21 -49 -43 -20 -21
-40 -38 -45 -38 -13 0 -144 -135 -142 -146 1 -5 -1 -17 -6 -28 -5 -11 -3 -32
3 -50 7 -18 12 -39 12 -47 0 -23 65 -58 129 -68 73 -12 191 3 242 30 20 10 43
19 50 19 8 0 45 20 82 45 38 25 72 45 76 45 4 0 23 17 42 38 42 44 79 68 79
50 0 -14 -30 -48 -43 -48 -6 0 -24 -15 -42 -32 -18 -18 -50 -42 -71 -53 -21
-11 -43 -25 -47 -32 -4 -7 -14 -13 -20 -13 -7 0 -30 -9 -50 -19 -21 -11 -60
-25 -87 -31 -28 -7 -53 -16 -56 -21 -7 -11 -171 -12 -178 -1 -3 5 -30 14 -60
21 -46 10 -58 18 -75 47 -38 63 -18 181 34 200 8 4 15 11 15 18 0 6 16 25 35
41 19 17 47 42 61 58 15 15 32 27 37 27 5 0 28 20 51 45 24 25 47 45 52 45 5
0 41 30 79 65 69 64 85 74 85 56z m79 -72 c19 -53 44 -80 91 -99 19 -7 39 -20
43 -27 4 -7 15 -13 23 -13 16 0 34 -39 34 -74 0 -15 -17 -39 -49 -67 -70 -63
-178 -139 -211 -149 -15 -4 -41 -18 -57 -29 -18 -13 -51 -23 -93 -27 -36 -4
-68 -12 -72 -17 -4 -7 -11 -7 -20 0 -7 6 -34 13 -59 15 -25 3 -57 13 -72 23
-24 15 -27 24 -27 69 1 45 5 56 38 92 20 23 48 47 62 54 14 7 31 21 38 32 7
10 19 18 27 18 8 0 30 14 48 30 19 17 39 30 45 30 6 0 12 4 14 9 7 20 163 181
172 178 5 -2 17 -23 25 -48z m-968 -349 c5 0 9 -6 9 -14 0 -14 -56 -33 -66
-23 -10 10 21 47 34 42 8 -3 18 -5 23 -5z m1169 -72 c0 -60 -19 -170 -32 -185
-5 -7 -8 -19 -5 -28 4 -8 2 -17 -2 -19 -5 -3 -11 -29 -15 -58 -4 -28 -16 -72
-27 -96 -37 -81 -45 -142 -29 -229 12 -60 15 -175 15 -509 l0 -430 90 -97 c49
-53 102 -106 117 -117 28 -21 38 -60 16 -60 -22 1 -107 25 -114 33 -4 4 -15 7
-25 7 -9 0 -41 21 -71 46 -36 30 -71 50 -110 61 -66 18 -68 23 -68 135 0 42
-4 80 -10 83 -5 3 -10 22 -10 41 0 39 -28 173 -40 189 -4 6 -15 53 -25 105 -9
52 -21 105 -26 118 -13 32 -11 136 2 149 20 20 15 530 -5 550 -3 3 -6 39 -6
80 0 61 3 75 18 79 9 3 31 11 47 19 17 7 48 19 70 26 22 8 48 21 58 31 10 10
22 18 28 18 5 0 40 23 76 50 36 28 70 50 74 50 5 0 9 -19 9 -42z m-3350 2 c0
-5 6 -10 13 -10 18 0 67 -52 67 -71 -1 -21 -41 -71 -160 -198 -58 -62 -109
-120 -114 -129 -5 -10 -18 -23 -28 -30 -10 -7 -18 -19 -18 -26 0 -8 -7 -19
-15 -26 -8 -7 -13 -16 -10 -20 2 -4 -4 -15 -14 -25 -19 -16 -20 -15 -37 12
-10 15 -26 37 -35 48 -31 35 -45 108 -32 169 10 47 47 106 67 106 11 0 66 57
66 68 0 5 12 14 28 21 15 7 34 19 42 27 31 28 86 71 105 82 25 14 75 15 75 2z
m2228 -4 c2 -3 -5 -26 -16 -49 -33 -69 -49 -109 -62 -157 -8 -25 -20 -53 -29
-63 -14 -16 -17 -15 -54 24 -22 22 -53 45 -68 51 -16 5 -29 16 -29 23 0 22
123 153 145 154 11 1 31 7 45 14 26 13 63 15 68 3z m-1924 -31 c26 -19 48 -35
50 -35 23 0 126 -150 126 -184 0 -4 6 -22 14 -39 8 -18 16 -54 19 -80 4 -44 2
-50 -19 -59 -15 -7 -28 -8 -33 -2 -5 5 -18 48 -29 95 -11 51 -31 103 -48 129
-16 24 -36 53 -44 66 -16 24 -56 58 -102 87 -42 26 -36 47 14 56 3 0 27 -15
52 -34z m2060 -4 c30 -32 30 -57 -1 -68 -25 -8 -93 -74 -93 -89 0 -7 -5 -14
-11 -16 -6 -2 -14 -19 -18 -38 -4 -22 -13 -36 -24 -38 -24 -5 -50 17 -38 32 5
6 15 39 21 74 7 34 16 62 21 62 4 0 13 16 19 35 12 37 52 75 79 75 10 0 30
-13 45 -29z m-2131 -56 c4 -8 14 -15 21 -15 13 0 66 -51 66 -64 0 -4 13 -26
29 -49 16 -23 32 -60 36 -82 4 -22 11 -42 15 -45 5 -3 12 -28 15 -56 l7 -50
-54 -42 c-30 -23 -59 -42 -64 -42 -21 -1 -58 -40 -70 -76 -18 -50 -18 -48 10
-82 l25 -29 -23 -44 c-28 -56 -113 -144 -162 -170 -47 -23 -48 -23 -82 -1 -66
46 -149 98 -175 111 -15 7 -42 32 -60 55 -17 22 -35 43 -39 44 -5 2 -8 28 -8
57 0 56 42 172 67 188 7 4 13 13 13 19 0 12 33 51 131 156 38 40 69 77 69 82
0 5 14 17 30 27 17 9 30 21 30 26 0 4 22 31 50 59 45 46 53 50 82 44 18 -3 36
-13 41 -21z m2199 -52 c8 -16 19 -37 25 -48 7 -11 14 -28 17 -38 5 -15 51 -42
68 -39 19 4 26 -26 13 -52 -18 -34 -19 -50 -3 -75 14 -22 5 -49 -19 -57 -10
-4 -40 -17 -68 -29 -72 -33 -78 -34 -106 -19 -13 7 -34 13 -45 14 -19 0 -22 7
-26 68 -3 37 -11 77 -19 90 -11 18 -11 26 -1 42 6 11 12 26 12 34 0 16 82 106
97 106 6 0 13 7 17 15 8 23 23 18 38 -12z m-408 -209 c17 -12 18 -14 3 -20
-28 -10 -77 18 -77 45 0 25 0 25 74 -25z m208 2 c12 -17 9 -135 -3 -157 -14
-27 -55 -42 -79 -29 -10 5 -27 29 -39 53 -34 71 -25 139 22 156 24 9 88 -5 99
-23z m-42 -316 c0 -72 -13 -91 -30 -44 -19 49 -10 114 16 114 11 0 14 -17 14
-70z m-1884 -133 c-14 -18 -26 -37 -26 -42 0 -4 -11 -16 -25 -27 -14 -11 -25
-25 -25 -31 0 -14 -51 -67 -64 -67 -6 0 -17 -9 -24 -20 -14 -23 -52 -27 -52
-6 0 8 14 19 30 25 17 5 30 15 30 20 0 6 5 11 11 11 15 0 89 79 89 96 0 8 5
14 10 14 6 0 15 12 21 27 15 39 30 56 42 44 6 -6 0 -22 -17 -44z m114 -53 c0
-12 -9 -33 -20 -47 -11 -14 -20 -28 -20 -32 0 -10 -76 -85 -85 -85 -4 0 -20
-11 -37 -25 -16 -14 -38 -25 -48 -25 -10 0 -20 -5 -22 -12 -6 -16 -38 -3 -38
15 0 8 32 36 71 62 39 26 73 55 77 64 3 9 14 25 25 36 10 11 30 40 45 64 23
40 26 42 39 25 7 -10 13 -28 13 -40z m86 -146 c9 -18 22 -40 29 -48 7 -8 21
-35 31 -59 9 -24 37 -62 61 -84 27 -25 43 -48 43 -63 0 -27 -64 -104 -86 -104
-8 0 -14 -4 -14 -10 0 -15 -69 -24 -95 -12 -13 6 -55 40 -93 76 -38 36 -72 66
-75 66 -9 0 -53 46 -60 63 -3 9 9 22 35 38 63 38 130 92 163 132 17 19 33 36
37 36 4 1 15 -14 24 -31z m-349 -148 c21 -27 43 -49 50 -50 19 0 36 -40 29
-70 -5 -29 10 -40 60 -40 24 0 131 -83 115 -88 -5 -2 -27 8 -48 22 -55 38
-155 35 -110 -3 8 -6 28 -14 45 -17 17 -3 43 -19 58 -35 22 -23 25 -31 15 -43
-7 -8 -21 -18 -32 -21 -10 -4 -19 -13 -19 -21 0 -8 -5 -14 -10 -14 -6 0 -23
-12 -38 -26 -42 -40 -94 -71 -129 -79 l-33 -7 0 46 c0 51 16 66 69 66 26 0 31
4 31 25 0 22 -3 24 -31 18 -27 -5 -31 -3 -27 13 2 14 12 19 38 19 28 0 35 4
35 20 0 15 -8 21 -32 23 -27 3 -33 8 -33 26 0 15 9 27 26 35 30 13 27 35 -5
39 -13 2 -26 14 -32 30 -6 15 -16 40 -24 57 -19 41 -30 125 -17 125 6 0 28
-22 49 -50z m608 -126 c23 -15 25 -22 25 -104 0 -88 0 -89 -31 -111 -35 -25
-27 -44 19 -44 20 0 28 -6 30 -22 2 -15 -2 -23 -12 -23 -20 0 -32 -40 -15 -51
18 -11 26 -11 34 1 12 20 26 9 44 -32 10 -24 35 -64 55 -91 45 -58 46 -92 7
-130 -16 -15 -34 -27 -39 -27 -6 0 -19 -11 -29 -24 -11 -13 -36 -29 -56 -34
-45 -12 -67 7 -67 59 0 44 15 59 57 59 35 0 41 8 21 28 -8 8 -8 15 2 27 19 23
-10 50 -53 50 -27 0 -32 4 -35 28 -3 21 1 27 16 27 20 0 36 25 26 41 -3 5 -23
9 -45 9 -44 0 -50 11 -17 34 21 15 21 17 6 33 -13 12 -20 14 -31 5 -19 -17
-27 -5 -27 41 0 28 -8 51 -26 74 l-26 34 51 54 c28 30 55 65 61 79 11 30 22
32 55 10z m135 -85 c27 -23 53 -54 59 -70 l10 -29 -57 0 c-31 0 -62 4 -68 8
-27 17 -25 132 2 132 3 0 27 -18 54 -41z m-437 -109 c-3 -11 -9 -20 -14 -20
-14 0 -11 28 4 33 6 3 13 6 14 6 0 1 -1 -8 -4 -19z m147 -47 c0 -28 -17 -63
-30 -63 -11 0 -24 85 -16 106 6 15 8 15 26 -1 11 -10 20 -29 20 -42z m340 -2
c0 -10 -77 -24 -91 -16 -22 14 -5 25 41 25 28 0 50 -4 50 -9z m18 -67 c20 -6
22 -12 22 -80 0 -55 -3 -74 -13 -74 -34 0 -105 123 -85 147 11 14 39 16 76 7z"/>
</g>
</svg>
